<svg xmlns="http://www.w3.org/2000/svg" viewBox="0 0 900 400" font-family="system-ui, -apple-system, sans-serif">
  <defs>
    <linearGradient id="grad_cr" x1="0%" y1="0%" x2="0%" y2="100%">
      <stop offset="0%" style="stop-color:#4FC3F7;stop-opacity:1" />
      <stop offset="100%" style="stop-color:#0288D1;stop-opacity:1" />
    </linearGradient>
    <linearGradient id="grad_kl" x1="0%" y1="0%" x2="0%" y2="100%">
      <stop offset="0%" style="stop-color:#FF8A65;stop-opacity:1" />
      <stop offset="100%" style="stop-color:#E64A19;stop-opacity:1" />
    </linearGradient>
    <filter id="shadow" x="-5%" y="-5%" width="110%" height="120%">
      <feDropShadow dx="0" dy="1" stdDeviation="1.5" flood-opacity="0.15"/>
    </filter>
  </defs>
  
  <!-- Background -->
  <rect width="900" height="400" fill="white" rx="12"/>
  
  <!-- Title -->
  <text x="450.0" y="30" text-anchor="middle" font-size="16" font-weight="700" fill="#1a1a2e">Accuracy Improvement over Vanilla Qwen2-Math-7B (Δ%)</text>
  
  <!-- Grid lines -->
  <line x1="70" y1="320.0" x2="870" y2="320.0" stroke="#e0e0e0" stroke-width="0.5" stroke-dasharray="4,4"/>
  <text x="62" y="324.0" text-anchor="end" font-size="11" fill="#666">-2</text>
  <line x1="70" y1="275.0" x2="870" y2="275.0" stroke="#666" stroke-width="1.5" stroke-dasharray="none"/>
  <text x="62" y="279.0" text-anchor="end" font-size="11" fill="#666">+0</text>
  <line x1="70" y1="230.00000000000003" x2="870" y2="230.00000000000003" stroke="#e0e0e0" stroke-width="0.5" stroke-dasharray="4,4"/>
  <text x="62" y="234.00000000000003" text-anchor="end" font-size="11" fill="#666">+2</text>
  <line x1="70" y1="185.0" x2="870" y2="185.0" stroke="#e0e0e0" stroke-width="0.5" stroke-dasharray="4,4"/>
  <text x="62" y="189.0" text-anchor="end" font-size="11" fill="#666">+4</text>
  <line x1="70" y1="140.0" x2="870" y2="140.0" stroke="#e0e0e0" stroke-width="0.5" stroke-dasharray="4,4"/>
  <text x="62" y="144.0" text-anchor="end" font-size="11" fill="#666">+6</text>
  <line x1="70" y1="95.0" x2="870" y2="95.0" stroke="#e0e0e0" stroke-width="0.5" stroke-dasharray="4,4"/>
  <text x="62" y="99.0" text-anchor="end" font-size="11" fill="#666">+8</text>
  <line x1="70" y1="50.0" x2="870" y2="50.0" stroke="#e0e0e0" stroke-width="0.5" stroke-dasharray="4,4"/>
  <text x="62" y="54.0" text-anchor="end" font-size="11" fill="#666">+10</text>
  <rect x="79.09090909090911" y="146.75" width="25.454545454545457" height="128.25" fill="url(#grad_cr)" rx="3" filter="url(#shadow)"/>
  <text x="91.81818181818184" y="140.75" text-anchor="middle" font-size="9" font-weight="600" fill="#0288D1">+5.7</text>
  <rect x="108.18181818181819" y="65.74999999999997" width="25.454545454545457" height="209.25000000000003" fill="url(#grad_kl)" rx="3" filter="url(#shadow)"/>
  <text x="120.90909090909092" y="59.74999999999997" text-anchor="middle" font-size="9" font-weight="600" fill="#E64A19">+9.3</text>
  <text x="106.36363636363637" y="338" text-anchor="middle" font-size="10" font-weight="500" fill="#333">TB</text>
  <text x="106.36363636363637" y="352" text-anchor="middle" font-size="8" fill="#888">Textbook</text>
  <rect x="151.81818181818184" y="245.75000000000003" width="25.454545454545457" height="29.24999999999997" fill="url(#grad_cr)" rx="3" filter="url(#shadow)"/>
  <text x="164.54545454545456" y="239.75000000000003" text-anchor="middle" font-size="9" font-weight="600" fill="#0288D1">+1.3</text>
  <rect x="180.90909090909093" y="254.75" width="25.454545454545457" height="20.25" fill="url(#grad_kl)" rx="3" filter="url(#shadow)"/>
  <text x="193.63636363636365" y="248.75" text-anchor="middle" font-size="9" font-weight="600" fill="#E64A19">+0.9</text>
  <text x="179.09090909090912" y="338" text-anchor="middle" font-size="10" font-weight="500" fill="#333">GS</text>
  <text x="179.09090909090912" y="352" text-anchor="middle" font-size="8" fill="#888">GSM8K</text>
  <rect x="224.54545454545456" y="261.5" width="25.454545454545457" height="13.5" fill="url(#grad_cr)" rx="3" filter="url(#shadow)"/>
  <text x="237.27272727272728" y="255.5" text-anchor="middle" font-size="9" font-weight="600" fill="#0288D1">+0.6</text>
  <rect x="253.63636363636365" y="266.0" width="25.454545454545457" height="9.0" fill="url(#grad_kl)" rx="3" filter="url(#shadow)"/>
  <text x="266.3636363636364" y="260.0" text-anchor="middle" font-size="9" font-weight="600" fill="#E64A19">+0.4</text>
  <text x="251.81818181818184" y="338" text-anchor="middle" font-size="10" font-weight="500" fill="#333">AD</text>
  <text x="251.81818181818184" y="352" text-anchor="middle" font-size="8" fill="#888">ASDiv</text>
  <rect x="297.2727272727273" y="263.75" width="25.454545454545457" height="11.25" fill="url(#grad_cr)" rx="3" filter="url(#shadow)"/>
  <text x="310.00000000000006" y="257.75" text-anchor="middle" font-size="9" font-weight="600" fill="#0288D1">+0.5</text>
  <rect x="326.3636363636364" y="259.25" width="25.454545454545457" height="15.75" fill="url(#grad_kl)" rx="3" filter="url(#shadow)"/>
  <text x="339.0909090909091" y="253.25" text-anchor="middle" font-size="9" font-weight="600" fill="#E64A19">+0.7</text>
  <text x="324.54545454545456" y="338" text-anchor="middle" font-size="10" font-weight="500" fill="#333">MW</text>
  <text x="324.54545454545456" y="352" text-anchor="middle" font-size="8" fill="#888">MAWPS</text>
  <rect x="370.00000000000006" y="198.5" width="25.454545454545457" height="76.5" fill="url(#grad_cr)" rx="3" filter="url(#shadow)"/>
  <text x="382.7272727272728" y="192.5" text-anchor="middle" font-size="9" font-weight="600" fill="#0288D1">+3.4</text>
  <rect x="399.0909090909091" y="266.0" width="25.454545454545457" height="9.0" fill="url(#grad_kl)" rx="3" filter="url(#shadow)"/>
  <text x="411.81818181818187" y="260.0" text-anchor="middle" font-size="9" font-weight="600" fill="#E64A19">+0.4</text>
  <text x="397.2727272727273" y="338" text-anchor="middle" font-size="10" font-weight="500" fill="#333">TM</text>
  <text x="397.2727272727273" y="352" text-anchor="middle" font-size="8" fill="#888">TabMWP</text>
  <rect x="442.7272727272728" y="223.24999999999997" width="25.454545454545457" height="51.75000000000003" fill="url(#grad_cr)" rx="3" filter="url(#shadow)"/>
  <text x="455.45454545454555" y="217.24999999999997" text-anchor="middle" font-size="9" font-weight="600" fill="#0288D1">+2.3</text>
  <rect x="471.81818181818187" y="243.5" width="25.454545454545457" height="31.5" fill="url(#grad_kl)" rx="3" filter="url(#shadow)"/>
  <text x="484.5454545454546" y="237.5" text-anchor="middle" font-size="9" font-weight="600" fill="#E64A19">+1.4</text>
  <text x="470.00000000000006" y="338" text-anchor="middle" font-size="10" font-weight="500" fill="#333">MH</text>
  <text x="470.00000000000006" y="352" text-anchor="middle" font-size="8" fill="#888">MATH</text>
  <rect x="515.4545454545454" y="275.0" width="25.454545454545457" height="6.75" fill="url(#grad_cr)" rx="3" filter="url(#shadow)"/>
  <text x="528.1818181818181" y="302.5" text-anchor="middle" font-size="9" font-weight="600" fill="#0288D1">-0.3</text>
  <rect x="544.5454545454546" y="270.5" width="25.454545454545457" height="4.5" fill="url(#grad_kl)" rx="3" filter="url(#shadow)"/>
  <text x="557.2727272727274" y="264.5" text-anchor="middle" font-size="9" font-weight="600" fill="#E64A19">+0.2</text>
  <text x="542.7272727272727" y="338" text-anchor="middle" font-size="10" font-weight="500" fill="#333">MS</text>
  <text x="542.7272727272727" y="352" text-anchor="middle" font-size="8" fill="#888">MMLU-STEM</text>
  <rect x="588.1818181818181" y="205.25" width="25.454545454545457" height="69.75" fill="url(#grad_cr)" rx="3" filter="url(#shadow)"/>
  <text x="600.9090909090909" y="199.25" text-anchor="middle" font-size="9" font-weight="600" fill="#0288D1">+3.1</text>
  <rect x="617.2727272727274" y="180.5" width="25.454545454545457" height="94.5" fill="url(#grad_kl)" rx="3" filter="url(#shadow)"/>
  <text x="630.0000000000001" y="174.5" text-anchor="middle" font-size="9" font-weight="600" fill="#E64A19">+4.2</text>
  <text x="615.4545454545455" y="338" text-anchor="middle" font-size="10" font-weight="500" fill="#333">GK</text>
  <text x="615.4545454545455" y="352" text-anchor="middle" font-size="8" fill="#888">Gaokao</text>
  <rect x="660.9090909090909" y="223.24999999999997" width="25.454545454545457" height="51.75000000000003" fill="url(#grad_cr)" rx="3" filter="url(#shadow)"/>
  <text x="673.6363636363636" y="217.24999999999997" text-anchor="middle" font-size="9" font-weight="600" fill="#0288D1">+2.3</text>
  <rect x="690.0000000000001" y="216.5" width="25.454545454545457" height="58.5" fill="url(#grad_kl)" rx="3" filter="url(#shadow)"/>
  <text x="702.7272727272729" y="210.5" text-anchor="middle" font-size="9" font-weight="600" fill="#E64A19">+2.6</text>
  <text x="688.1818181818182" y="338" text-anchor="middle" font-size="10" font-weight="500" fill="#333">CM</text>
  <text x="688.1818181818182" y="352" text-anchor="middle" font-size="8" fill="#888">CounterMath</text>
  <rect x="733.6363636363636" y="101.75000000000003" width="25.454545454545457" height="173.24999999999997" fill="url(#grad_cr)" rx="3" filter="url(#shadow)"/>
  <text x="746.3636363636364" y="95.75000000000003" text-anchor="middle" font-size="9" font-weight="600" fill="#0288D1">+7.7</text>
  <rect x="762.7272727272729" y="59.0" width="25.454545454545457" height="216.0" fill="url(#grad_kl)" rx="3" filter="url(#shadow)"/>
  <text x="775.4545454545456" y="53.0" text-anchor="middle" font-size="9" font-weight="600" fill="#E64A19">+9.6</text>
  <text x="760.909090909091" y="338" text-anchor="middle" font-size="10" font-weight="500" fill="#333">TQ</text>
  <text x="760.909090909091" y="352" text-anchor="middle" font-size="8" fill="#888">TheoremQA</text>
  <rect x="806.3636363636364" y="144.5" width="25.454545454545457" height="130.5" fill="url(#grad_cr)" rx="3" filter="url(#shadow)"/>
  <text x="819.0909090909091" y="138.5" text-anchor="middle" font-size="9" font-weight="600" fill="#0288D1">+5.8</text>
  <rect x="835.4545454545456" y="180.5" width="25.454545454545457" height="94.5" fill="url(#grad_kl)" rx="3" filter="url(#shadow)"/>
  <text x="848.1818181818184" y="174.5" text-anchor="middle" font-size="9" font-weight="600" fill="#E64A19">+4.2</text>
  <text x="833.6363636363637" y="338" text-anchor="middle" font-size="10" font-weight="500" fill="#333">OL</text>
  <text x="833.6363636363637" y="352" text-anchor="middle" font-size="8" fill="#888">OlympiadBench</text>

  <!-- Legend -->
  <rect x="680" y="8" width="190" height="36" fill="white" stroke="#e0e0e0" rx="6"/>
  <rect x="690" y="18" width="14" height="14" fill="url(#grad_cr)" rx="2"/>
  <text x="710" y="30" font-size="11" fill="#333">CORE-CR</text>
  <rect x="785" y="18" width="14" height="14" fill="url(#grad_kl)" rx="2"/>
  <text x="805" y="30" font-size="11" fill="#333">CORE-KL</text>
</svg>